<svg
width="304"
height="383"
  xmlns="http://www.w3.org/2000/svg"
  viewBox="0 0 3040 3830"
>
  <g
    fill="rgb(88,63,54)"
  >
    <g>
      <path
        d="M2695 2906 c-129 -41 -213 -140 -230 -271 -24 -179 -83 -269 -204 -315 -117 -45 -233 -14 -320 86 -42 47 -55 78 -76 178 -22 111 -50 168 -104 219 -73 68 -142 90 -271 85 -121 -4 -172 -22 -239 -84 -56 -50 -75 -90 -107 -221 -14 -59 -34 -121 -44 -138 -49 -78 -162 -147 -244 -147 -112 0 -220 66 -274 168 -6 11 -18 62 -27 114 -9 51 -27 114 -40 140 -47 93 -169 170 -268 170 l-42 0 -45 -88 c-25 -48 -72 -137 -104 -199 l-59 -112 56 -103 c80 -151 196 -369 400 -753 99 -187 191 -361 206 -387 l26 -48 393 0 c342 0 392 -2 392 -15 0 -10 11 -15 35 -15 24 0 35 5 35 15 0 13 49 15 384 15 l384 0 107 203 c59 111 151 283 203 382 52 99 150 281 217 405 68 124 141 262 164 308 l42 83 -77 147 c-98 187 -102 192 -173 191 -31 0 -74 -6 -96 -13z"
      ></path>
    </g>
  </g>
  <g
    fill="rgb(164,121,108)"
  >
    <g>
      <path
        id="pyMopctkX"
        d="M453 3348 l-260 -483 46 -6 c102 -14 202 -82 246 -169 13 -26 31 -89 40 -140 19 -108 32 -137 85 -190 131 -131 361 -126 482 8 49 55 53 62 82 186 32 130 51 170 107 220 59 54 121 79 209 84 96 5 174 -22 241 -85 54 -51 82 -108 104 -219 21 -100 34 -131 76 -178 94 -108 238 -140 384 -85 117 44 176 137 200 314 21 157 140 268 304 284 l67 6 -251 467 -250 467 -826 1 -826 0 -260 -482z"
      ></path>
    </g>
  </g>
  <g
    fill="rgb(97,161,72)"
  >
    <g>
      <path
        d="M1470 818 l0 -381 -112 109 c-120 116 -189 159 -305 189 -193 50 -412 -44 -495 -213 -77 -156 -23 -331 135 -433 81 -53 154 -73 257 -72 159 1 253 51 426 224 l118 118 141 -138 c157 -154 202 -182 339 -209 72 -14 86 -14 156 0 154 32 253 100 310 214 30 58 35 77 35 143 0 91 -29 163 -94 234 -71 77 -215 137 -327 137 -145 -1 -260 -56 -406 -199 l-108 -104 0 381 0 382 -35 0 -35 0 0 -382z"
      ></path>
    </g>
  </g>
</svg>